<?xml version="1.0" standalone="no"?>
<!DOCTYPE svg PUBLIC "-//W3C//DTD SVG 20010904//EN"
 "http://www.w3.org/TR/2001/REC-SVG-20010904/DTD/svg10.dtd">
<svg version="1.0" xmlns="http://www.w3.org/2000/svg"
 width="190.000000pt" height="190.000000pt" viewBox="0 0 190.000000 190.000000"
 preserveAspectRatio="xMidYMid meet">
<metadata>
Created by potrace 1.14, written by Peter Selinger 2001-2017
</metadata>
<g transform="translate(0.000000,190.000000) scale(0.100000,-0.100000)"
fill="#000000" stroke="none">
<path d="M1544 1839 c-3 -5 -9 -7 -14 -4 -5 3 -12 0 -16 -6 -5 -8 -3 -9 6 -4
8 5 11 4 6 -3 -4 -6 -13 -9 -21 -5 -8 3 -15 0 -15 -7 0 -7 -12 -23 -26 -36
-14 -13 -22 -29 -19 -34 3 -5 0 -7 -8 -4 -10 4 -14 -2 -12 -20 2 -18 -1 -23
-11 -19 -8 3 -14 -1 -14 -7 0 -9 -6 -7 -19 4 -11 10 -24 15 -30 12 -5 -4 -13
-1 -17 5 -4 8 -3 9 4 5 7 -4 12 -3 12 2 0 5 -15 9 -32 7 -18 -1 -42 5 -53 14
-18 15 -19 15 -6 -2 13 -16 12 -19 -8 -24 -14 -4 -20 -11 -16 -20 3 -11 1 -13
-10 -9 -8 3 -19 -2 -24 -12 -5 -9 -11 -20 -13 -23 -1 -4 6 -17 16 -28 20 -22
20 -22 0 -16 -12 4 -10 1 6 -9 14 -8 19 -15 12 -16 -10 0 -10 -3 0 -14 7 -8
21 -12 31 -10 12 2 17 -4 17 -22 0 -18 -8 -28 -30 -38 -17 -7 -27 -16 -23 -20
4 -4 0 -4 -9 -1 -19 7 -31 32 -23 46 4 5 -1 6 -10 3 -9 -4 -23 0 -33 9 -18 16
-31 15 -86 -3 -39 -13 -62 -59 -50 -104 3 -14 7 -26 8 -26 0 0 18 -6 39 -14
l39 -13 -35 -37 c-20 -20 -38 -43 -41 -51 -3 -8 -13 -15 -22 -15 -10 0 -14 3
-11 7 4 3 -1 12 -11 19 -10 8 -12 13 -5 14 9 0 10 7 3 24 -5 13 -6 28 -2 32 4
5 0 3 -9 -4 -11 -8 -25 -10 -40 -4 -13 4 -30 7 -36 6 -7 -1 -19 -2 -26 -3 -8
0 -18 -11 -24 -23 -9 -22 -9 -31 -5 -83 1 -11 12 -25 25 -30 30 -14 25 -52
-11 -86 -21 -20 -33 -24 -45 -17 -9 5 -17 15 -17 22 0 12 -24 28 -63 40 -45
14 -102 -45 -95 -101 3 -30 58 -68 70 -49 5 7 8 7 8 1 0 -13 -88 -105 -100
-105 -6 0 -10 5 -10 10 0 14 -48 33 -90 35 -58 2 -89 -13 -98 -48 -13 -48 -3
-76 36 -102 l35 -24 -28 -25 c-34 -32 -40 -32 -68 -2 -20 23 -44 30 -89 27
-23 -1 -66 -46 -74 -76 -8 -31 3 -78 16 -70 11 7 50 -12 50 -23 0 -4 -16 -25
-35 -45 -44 -47 -47 -100 -9 -167 47 -82 41 -171 -16 -225 -17 -16 -30 -33
-30 -38 0 -4 -21 -37 -46 -73 -25 -35 -42 -64 -37 -64 4 0 1 -5 -7 -10 -10 -6
76 -10 252 -10 253 0 269 1 302 21 20 12 36 25 36 29 0 4 12 11 26 14 14 4 43
18 63 31 36 22 93 41 151 51 14 3 53 19 88 37 128 65 223 227 238 407 3 47 8
97 9 112 4 39 66 186 90 212 11 12 37 48 58 79 20 31 41 57 47 57 5 0 32 13
59 29 28 17 69 36 93 44 54 19 75 47 83 117 9 72 14 272 6 285 -3 6 -6 15 -7
22 -1 6 -5 31 -9 55 -3 24 -8 61 -11 83 -2 22 -9 42 -14 43 -6 2 -8 7 -5 12 3
5 -1 14 -8 22 -7 7 -17 24 -23 38 -12 27 -70 55 -80 39z m-249 -135 c-8 -9
-19 -12 -25 -9 -15 9 -5 20 19 22 19 2 20 0 6 -13z m-67 -49 c-3 -3 -9 2 -12
12 -6 14 -5 15 5 6 7 -7 10 -15 7 -18z"/>
<path d="M105 1813 c5 -14 3 -14 -12 -2 -11 9 -14 9 -9 2 4 -7 2 -22 -4 -33
-6 -12 -7 -20 -1 -20 5 0 12 8 14 18 4 16 5 16 6 -1 1 -17 2 -17 17 -3 17 17
64 22 64 6 0 -5 -7 -7 -15 -4 -8 4 -15 1 -15 -6 0 -6 -4 -9 -9 -6 -14 9 -21
-20 -8 -34 9 -10 9 -11 0 -6 -9 5 -9 -5 1 -39 8 -25 12 -45 10 -45 -2 0 1 -12
7 -27 14 -35 23 -136 12 -130 -5 3 -17 -2 -28 -10 -12 -9 -14 -13 -5 -11 23 7
40 -17 40 -59 0 -25 3 -33 9 -24 6 9 8 5 7 -15 -1 -16 -5 -35 -10 -43 -6 -10
-5 -12 2 -7 8 5 10 -15 8 -68 -1 -41 1 -73 6 -70 5 3 6 9 3 14 -3 5 -1 11 3
14 5 3 10 34 11 68 2 35 3 86 4 113 2 37 6 50 17 50 8 0 18 5 22 10 5 6 8 5 8
-2 0 -7 7 -13 15 -13 8 0 15 -4 15 -10 0 -5 11 -12 24 -16 31 -7 61 -39 47
-49 -16 -9 -13 -25 5 -25 8 0 13 -4 10 -9 -4 -5 -2 -11 4 -13 5 -1 11 -12 13
-23 1 -11 6 -25 10 -32 4 -7 9 -33 10 -58 1 -27 6 -45 13 -45 7 0 11 8 9 18
-1 9 2 23 8 30 6 8 6 12 -3 12 -10 0 -10 3 -1 14 8 10 9 16 1 21 -5 3 -10 11
-10 16 0 6 5 7 12 3 7 -5 8 -3 3 7 -8 12 -10 32 -14 107 -1 13 -5 21 -10 18
-5 -4 -7 2 -5 11 6 24 -9 44 -33 46 -18 1 -30 27 -12 27 5 0 6 7 3 15 -4 9 0
15 8 15 11 0 53 61 53 79 0 3 4 12 9 19 4 7 6 16 3 18 -3 3 -1 19 3 35 5 17 5
29 -1 29 -5 0 -8 3 -8 8 3 20 -3 23 -18 11 -9 -8 -14 -9 -10 -3 4 7 0 15 -9
18 -14 5 -14 9 -3 23 8 9 9 14 3 10 -7 -4 -17 -1 -23 7 -7 8 -24 17 -39 21
-15 4 -36 14 -47 23 -19 16 -19 16 -6 -1 13 -17 13 -17 -12 -6 -15 7 -27 16
-27 20 0 4 -34 7 -76 7 -64 0 -74 -2 -69 -15z m139 -25 c-4 -6 -10 -5 -15 3
-8 13 -13 5 -10 -13 0 -5 -6 -8 -16 -8 -15 0 -15 2 1 19 18 19 52 18 40 -1z
m22 -5 c-3 -4 6 -13 21 -20 25 -12 26 -12 3 -6 -14 3 -33 6 -44 5 -18 -1 -18
-1 0 13 20 15 32 20 20 8z m83 -16 c8 -10 7 -14 -2 -14 -8 0 -14 6 -14 14 0 7
1 13 2 13 2 0 8 -6 14 -13z m-76 -40 c20 -3 46 -12 56 -21 9 -9 22 -16 28 -16
26 0 39 -80 21 -122 -12 -26 -19 -32 -34 -25 -3 1 -10 -6 -15 -16 -6 -9 -14
-15 -20 -12 -5 4 -9 1 -9 -5 0 -6 -4 -8 -10 -5 -5 3 -16 3 -22 -2 -42 -26 -50
-4 -53 134 -1 70 1 100 9 97 6 -2 28 -5 49 -7z m-74 -191 c9 -11 9 -16 0 -22
-8 -4 -9 -3 -5 4 4 7 2 12 -3 12 -6 0 -11 5 -11 10 0 14 5 13 19 -4z"/>
<path d="M163 1345 c0 -8 4 -15 9 -15 4 0 8 4 8 9 0 6 -4 12 -8 15 -5 3 -9 -1
-9 -9z"/>
<path d="M423 1120 c1 -21 10 -18 13 5 1 8 -2 15 -6 15 -5 0 -8 -9 -7 -20z"/>
<path d="M413 1048 c-2 -18 0 -20 7 -8 12 18 13 30 2 30 -4 0 -9 -10 -9 -22z"/>
<path d="M1450 910 c-9 -5 -9 -9 -1 -14 6 -4 11 -4 11 -1 0 4 7 0 15 -9 8 -8
15 -19 15 -25 0 -6 3 -10 8 -9 4 1 18 -2 30 -6 19 -6 22 -13 18 -32 -4 -14 -2
-24 4 -24 6 0 9 -4 5 -9 -3 -5 -1 -12 4 -15 8 -5 12 -48 14 -173 0 -38 4 -60
10 -56 6 4 7 1 2 -7 -11 -18 -14 -360 -3 -360 5 0 4 -9 -2 -20 -8 -15 -8 -20
1 -20 7 0 9 -9 6 -21 -5 -17 -3 -19 6 -10 8 8 13 56 14 134 2 99 9 235 15 314
1 7 7 14 15 17 7 3 13 10 13 16 0 6 -4 9 -9 5 -15 -9 -20 9 -6 22 10 10 14 7
19 -13 4 -14 11 -22 16 -19 5 3 11 1 15 -5 4 -6 10 -8 15 -5 7 5 14 -13 28
-84 4 -19 13 -36 21 -39 8 -3 11 0 7 6 -3 6 -2 13 3 17 8 5 7 119 -2 190 -4
29 -26 64 -28 45 -1 -8 -1 -21 0 -27 2 -14 0 -15 -44 -17 -50 -4 -60 9 -57 70
2 30 7 54 10 55 4 0 17 2 30 5 12 2 22 0 22 -4 0 -5 7 -9 15 -9 8 0 15 4 15 9
0 5 9 4 20 -2 14 -8 20 -8 20 0 0 15 24 -9 34 -35 10 -25 17 -78 16 -128 -1
-24 3 -36 9 -33 6 4 8 13 5 21 -4 8 1 18 10 21 13 5 14 9 5 20 -9 11 -9 18 1
28 6 8 10 34 9 58 -2 24 0 48 2 53 10 18 4 68 -8 73 -7 2 -13 0 -13 -5 0 -5
-17 -10 -37 -11 -21 -2 -39 -5 -41 -6 -2 -2 -15 2 -30 10 -15 8 -28 10 -30 4
-2 -5 -13 -5 -28 0 -13 5 -24 7 -24 5 0 -3 -12 3 -27 12 -15 10 -29 17 -30 15
-2 -1 -18 4 -36 12 -41 18 -82 25 -97 16z m264 -88 c3 -5 -1 -9 -9 -9 -8 0
-12 4 -9 9 3 4 7 8 9 8 2 0 6 -4 9 -8z m-100 -98 c3 -8 2 -12 -4 -9 -6 3 -10
10 -10 16 0 14 7 11 14 -7z"/>
<path d="M1590 65 c0 -8 4 -15 10 -15 5 0 7 7 4 15 -4 8 -8 15 -10 15 -2 0 -4
-7 -4 -15z"/>
</g>
</svg>
